<mxfile host="app.diagrams.net" modified="2022-03-28T00:39:02.125Z" agent="5.0 (Windows NT 10.0; Win64; x64) AppleWebKit/537.36 (KHTML, like Gecko) Chrome/99.0.4844.82 Safari/537.36" etag="H_ni7X43DcQjw_R4l9br" version="17.2.4" type="github" pages="2">
  <diagram name="Page-1" id="1622d65d-c77d-c4b6-e0e7-3c11208c8684">
    <mxGraphModel dx="3069.5" dy="737" grid="1" gridSize="10" guides="1" tooltips="1" connect="1" arrows="1" fold="1" page="1" pageScale="1.5" pageWidth="1169" pageHeight="826" background="none" math="0" shadow="0">
      <root>
        <mxCell id="0" style=";html=1;" />
        <mxCell id="1" style=";html=1;" parent="0" />
        <mxCell id="TeuCfKKT3dYriOcR2eb5-1" value="" style="shape=image;html=1;verticalAlign=top;verticalLabelPosition=bottom;labelBackgroundColor=#ffffff;imageAspect=0;aspect=fixed;image=https://cdn1.iconfinder.com/data/icons/CrystalClear/128x128/kdm/user_male.png" vertex="1" parent="1">
          <mxGeometry x="-960" y="130" width="60" height="60" as="geometry" />
        </mxCell>
        <mxCell id="TeuCfKKT3dYriOcR2eb5-6" value="" style="shape=image;html=1;verticalAlign=top;verticalLabelPosition=bottom;labelBackgroundColor=#ffffff;imageAspect=0;aspect=fixed;image=https://cdn1.iconfinder.com/data/icons/CrystalClear/128x128/kdm/user_male.png" vertex="1" parent="1">
          <mxGeometry x="-940" y="130" width="55" height="55" as="geometry" />
        </mxCell>
        <mxCell id="TeuCfKKT3dYriOcR2eb5-7" value="" style="shape=image;html=1;verticalAlign=top;verticalLabelPosition=bottom;labelBackgroundColor=#ffffff;imageAspect=0;aspect=fixed;image=https://cdn1.iconfinder.com/data/icons/CrystalClear/128x128/kdm/user_male.png" vertex="1" parent="1">
          <mxGeometry x="-950" y="150" width="55" height="55" as="geometry" />
        </mxCell>
        <mxCell id="TeuCfKKT3dYriOcR2eb5-8" value="&lt;font style=&quot;font-size: 17px&quot; color=&quot;#007fff&quot;&gt;User Experience, Time to market and Sales&lt;/font&gt;" style="rounded=0;whiteSpace=wrap;html=1;fontStyle=1;fontColor=#009900;strokeColor=#66B2FF;" vertex="1" parent="1">
          <mxGeometry x="-876" y="140" width="166" height="60" as="geometry" />
        </mxCell>
      </root>
    </mxGraphModel>
  </diagram>
  <diagram id="sziv7gaduQ6-6AzNWARn" name="Page-2">
    <mxGraphModel dx="1316" dy="737" grid="1" gridSize="10" guides="1" tooltips="1" connect="1" arrows="1" fold="1" page="1" pageScale="1" pageWidth="850" pageHeight="1100" math="0" shadow="0">
      <root>
        <mxCell id="0" />
        <mxCell id="1" parent="0" />
        <mxCell id="hlMxdPk4lUfLSePp7Jsg-3" value="" style="sketch=0;outlineConnect=0;fontColor=#232F3E;gradientColor=none;fillColor=#B0084D;strokeColor=none;dashed=0;verticalLabelPosition=bottom;verticalAlign=top;align=center;html=1;fontSize=12;fontStyle=0;aspect=fixed;pointerEvents=1;shape=mxgraph.aws4.checklist_cost;" vertex="1" parent="1">
          <mxGeometry x="130" y="150" width="110" height="110" as="geometry" />
        </mxCell>
        <mxCell id="hlMxdPk4lUfLSePp7Jsg-4" value="Compliance, Security, Availability, Cost, Operational Excellence&amp;nbsp;" style="rounded=0;whiteSpace=wrap;html=1;fontSize=17;strokeColor=#b85450;fillColor=#f8cecc;" vertex="1" parent="1">
          <mxGeometry x="250" y="150" width="190" height="80" as="geometry" />
        </mxCell>
      </root>
    </mxGraphModel>
  </diagram>
</mxfile>
